<?xml version="1.0" encoding="utf-8"?>
<svg xmlns="http://www.w3.org/2000/svg" xmlns:xlink="http://www.w3.org/1999/xlink" width="800" height="500" viewBox="0 0 3200 2000">
<defs>
  <clipPath id="clip010">
    <rect x="0" y="0" width="3200" height="2000"/>
  </clipPath>
</defs>
<path clip-path="url(#clip010)" d="
M0 2000 L3200 2000 L3200 0 L0 0  Z
  " fill="#ffffff" fill-rule="evenodd" fill-opacity="1"/>
<defs>
  <clipPath id="clip011">
    <rect x="640" y="0" width="2241" height="2000"/>
  </clipPath>
</defs>
<defs>
  <clipPath id="clip012">
    <rect x="315" y="179" width="2839" height="1698"/>
  </clipPath>
</defs>
<path clip-path="url(#clip010)" d="
M315.252 1876.51 L3152.76 1876.51 L3152.76 179.287 L315.252 179.287  Z
  " fill="#ffffff" fill-rule="evenodd" fill-opacity="1"/>
<polyline clip-path="url(#clip012)" style="stroke:#000000; stroke-linecap:butt; stroke-linejoin:round; stroke-width:2; stroke-opacity:0.1; fill:none" points="
  1064.78,1876.51 1064.78,179.287 
  "/>
<polyline clip-path="url(#clip012)" style="stroke:#000000; stroke-linecap:butt; stroke-linejoin:round; stroke-width:2; stroke-opacity:0.1; fill:none" points="
  1734,1876.51 1734,179.287 
  "/>
<polyline clip-path="url(#clip012)" style="stroke:#000000; stroke-linecap:butt; stroke-linejoin:round; stroke-width:2; stroke-opacity:0.1; fill:none" points="
  2403.23,1876.51 2403.23,179.287 
  "/>
<polyline clip-path="url(#clip012)" style="stroke:#000000; stroke-linecap:butt; stroke-linejoin:round; stroke-width:2; stroke-opacity:0.1; fill:none" points="
  3072.45,1876.51 3072.45,179.287 
  "/>
<polyline clip-path="url(#clip012)" style="stroke:#000000; stroke-linecap:butt; stroke-linejoin:round; stroke-width:2; stroke-opacity:0.05; fill:none" points="
  529.403,1876.51 529.403,179.287 
  "/>
<polyline clip-path="url(#clip012)" style="stroke:#000000; stroke-linecap:butt; stroke-linejoin:round; stroke-width:2; stroke-opacity:0.05; fill:none" points="
  663.248,1876.51 663.248,179.287 
  "/>
<polyline clip-path="url(#clip012)" style="stroke:#000000; stroke-linecap:butt; stroke-linejoin:round; stroke-width:2; stroke-opacity:0.05; fill:none" points="
  797.092,1876.51 797.092,179.287 
  "/>
<polyline clip-path="url(#clip012)" style="stroke:#000000; stroke-linecap:butt; stroke-linejoin:round; stroke-width:2; stroke-opacity:0.05; fill:none" points="
  930.937,1876.51 930.937,179.287 
  "/>
<polyline clip-path="url(#clip012)" style="stroke:#000000; stroke-linecap:butt; stroke-linejoin:round; stroke-width:2; stroke-opacity:0.05; fill:none" points="
  1198.63,1876.51 1198.63,179.287 
  "/>
<polyline clip-path="url(#clip012)" style="stroke:#000000; stroke-linecap:butt; stroke-linejoin:round; stroke-width:2; stroke-opacity:0.05; fill:none" points="
  1332.47,1876.51 1332.47,179.287 
  "/>
<polyline clip-path="url(#clip012)" style="stroke:#000000; stroke-linecap:butt; stroke-linejoin:round; stroke-width:2; stroke-opacity:0.05; fill:none" points="
  1466.31,1876.51 1466.31,179.287 
  "/>
<polyline clip-path="url(#clip012)" style="stroke:#000000; stroke-linecap:butt; stroke-linejoin:round; stroke-width:2; stroke-opacity:0.05; fill:none" points="
  1600.16,1876.51 1600.16,179.287 
  "/>
<polyline clip-path="url(#clip012)" style="stroke:#000000; stroke-linecap:butt; stroke-linejoin:round; stroke-width:2; stroke-opacity:0.05; fill:none" points="
  1867.85,1876.51 1867.85,179.287 
  "/>
<polyline clip-path="url(#clip012)" style="stroke:#000000; stroke-linecap:butt; stroke-linejoin:round; stroke-width:2; stroke-opacity:0.05; fill:none" points="
  2001.69,1876.51 2001.69,179.287 
  "/>
<polyline clip-path="url(#clip012)" style="stroke:#000000; stroke-linecap:butt; stroke-linejoin:round; stroke-width:2; stroke-opacity:0.05; fill:none" points="
  2135.54,1876.51 2135.54,179.287 
  "/>
<polyline clip-path="url(#clip012)" style="stroke:#000000; stroke-linecap:butt; stroke-linejoin:round; stroke-width:2; stroke-opacity:0.05; fill:none" points="
  2269.38,1876.51 2269.38,179.287 
  "/>
<polyline clip-path="url(#clip012)" style="stroke:#000000; stroke-linecap:butt; stroke-linejoin:round; stroke-width:2; stroke-opacity:0.05; fill:none" points="
  2537.07,1876.51 2537.07,179.287 
  "/>
<polyline clip-path="url(#clip012)" style="stroke:#000000; stroke-linecap:butt; stroke-linejoin:round; stroke-width:2; stroke-opacity:0.05; fill:none" points="
  2670.92,1876.51 2670.92,179.287 
  "/>
<polyline clip-path="url(#clip012)" style="stroke:#000000; stroke-linecap:butt; stroke-linejoin:round; stroke-width:2; stroke-opacity:0.05; fill:none" points="
  2804.76,1876.51 2804.76,179.287 
  "/>
<polyline clip-path="url(#clip012)" style="stroke:#000000; stroke-linecap:butt; stroke-linejoin:round; stroke-width:2; stroke-opacity:0.05; fill:none" points="
  2938.6,1876.51 2938.6,179.287 
  "/>
<polyline clip-path="url(#clip010)" style="stroke:#000000; stroke-linecap:butt; stroke-linejoin:round; stroke-width:4; stroke-opacity:1; fill:none" points="
  315.252,275.453 3152.76,275.453 
  "/>
<polyline clip-path="url(#clip010)" style="stroke:#000000; stroke-linecap:butt; stroke-linejoin:round; stroke-width:4; stroke-opacity:1; fill:none" points="
  1064.78,294.35 1064.78,256.555 
  "/>
<polyline clip-path="url(#clip010)" style="stroke:#000000; stroke-linecap:butt; stroke-linejoin:round; stroke-width:4; stroke-opacity:1; fill:none" points="
  1734,294.35 1734,256.555 
  "/>
<polyline clip-path="url(#clip010)" style="stroke:#000000; stroke-linecap:butt; stroke-linejoin:round; stroke-width:4; stroke-opacity:1; fill:none" points="
  2403.23,294.35 2403.23,256.555 
  "/>
<polyline clip-path="url(#clip010)" style="stroke:#000000; stroke-linecap:butt; stroke-linejoin:round; stroke-width:4; stroke-opacity:1; fill:none" points="
  3072.45,294.35 3072.45,256.555 
  "/>
<polyline clip-path="url(#clip010)" style="stroke:#000000; stroke-linecap:butt; stroke-linejoin:round; stroke-width:4; stroke-opacity:1; fill:none" points="
  529.403,284.901 529.403,266.004 
  "/>
<polyline clip-path="url(#clip010)" style="stroke:#000000; stroke-linecap:butt; stroke-linejoin:round; stroke-width:4; stroke-opacity:1; fill:none" points="
  663.248,284.901 663.248,266.004 
  "/>
<polyline clip-path="url(#clip010)" style="stroke:#000000; stroke-linecap:butt; stroke-linejoin:round; stroke-width:4; stroke-opacity:1; fill:none" points="
  797.092,284.901 797.092,266.004 
  "/>
<polyline clip-path="url(#clip010)" style="stroke:#000000; stroke-linecap:butt; stroke-linejoin:round; stroke-width:4; stroke-opacity:1; fill:none" points="
  930.937,284.901 930.937,266.004 
  "/>
<polyline clip-path="url(#clip010)" style="stroke:#000000; stroke-linecap:butt; stroke-linejoin:round; stroke-width:4; stroke-opacity:1; fill:none" points="
  1198.63,284.901 1198.63,266.004 
  "/>
<polyline clip-path="url(#clip010)" style="stroke:#000000; stroke-linecap:butt; stroke-linejoin:round; stroke-width:4; stroke-opacity:1; fill:none" points="
  1332.47,284.901 1332.47,266.004 
  "/>
<polyline clip-path="url(#clip010)" style="stroke:#000000; stroke-linecap:butt; stroke-linejoin:round; stroke-width:4; stroke-opacity:1; fill:none" points="
  1466.31,284.901 1466.31,266.004 
  "/>
<polyline clip-path="url(#clip010)" style="stroke:#000000; stroke-linecap:butt; stroke-linejoin:round; stroke-width:4; stroke-opacity:1; fill:none" points="
  1600.16,284.901 1600.16,266.004 
  "/>
<polyline clip-path="url(#clip010)" style="stroke:#000000; stroke-linecap:butt; stroke-linejoin:round; stroke-width:4; stroke-opacity:1; fill:none" points="
  1867.85,284.901 1867.85,266.004 
  "/>
<polyline clip-path="url(#clip010)" style="stroke:#000000; stroke-linecap:butt; stroke-linejoin:round; stroke-width:4; stroke-opacity:1; fill:none" points="
  2001.69,284.901 2001.69,266.004 
  "/>
<polyline clip-path="url(#clip010)" style="stroke:#000000; stroke-linecap:butt; stroke-linejoin:round; stroke-width:4; stroke-opacity:1; fill:none" points="
  2135.54,284.901 2135.54,266.004 
  "/>
<polyline clip-path="url(#clip010)" style="stroke:#000000; stroke-linecap:butt; stroke-linejoin:round; stroke-width:4; stroke-opacity:1; fill:none" points="
  2269.38,284.901 2269.38,266.004 
  "/>
<polyline clip-path="url(#clip010)" style="stroke:#000000; stroke-linecap:butt; stroke-linejoin:round; stroke-width:4; stroke-opacity:1; fill:none" points="
  2537.07,284.901 2537.07,266.004 
  "/>
<polyline clip-path="url(#clip010)" style="stroke:#000000; stroke-linecap:butt; stroke-linejoin:round; stroke-width:4; stroke-opacity:1; fill:none" points="
  2670.92,284.901 2670.92,266.004 
  "/>
<polyline clip-path="url(#clip010)" style="stroke:#000000; stroke-linecap:butt; stroke-linejoin:round; stroke-width:4; stroke-opacity:1; fill:none" points="
  2804.76,284.901 2804.76,266.004 
  "/>
<polyline clip-path="url(#clip010)" style="stroke:#000000; stroke-linecap:butt; stroke-linejoin:round; stroke-width:4; stroke-opacity:1; fill:none" points="
  2938.6,284.901 2938.6,266.004 
  "/>
<path clip-path="url(#clip010)" d="M1029.45 347.974 L1049.85 347.974 L1049.85 352.893 L1022.42 352.893 L1022.42 347.974 Q1025.75 344.53 1031.48 338.743 Q1037.24 332.927 1038.71 331.249 Q1041.52 328.095 1042.62 325.925 Q1043.75 323.726 1043.75 321.614 Q1043.75 318.171 1041.31 316 Q1038.91 313.83 1035.04 313.83 Q1032.29 313.83 1029.22 314.785 Q1026.18 315.74 1022.71 317.679 L1022.71 311.776 Q1026.24 310.358 1029.31 309.635 Q1032.37 308.911 1034.92 308.911 Q1041.63 308.911 1045.63 312.268 Q1049.62 315.624 1049.62 321.238 Q1049.62 323.9 1048.61 326.301 Q1047.62 328.674 1044.99 331.915 Q1044.27 332.754 1040.39 336.776 Q1036.51 340.769 1029.45 347.974 Z" fill="#000000" fill-rule="evenodd" fill-opacity="1" /><path clip-path="url(#clip010)" d="M1062.12 345.543 L1068.22 345.543 L1068.22 352.893 L1062.12 352.893 L1062.12 345.543 Z" fill="#000000" fill-rule="evenodd" fill-opacity="1" /><path clip-path="url(#clip010)" d="M1081.01 309.693 L1103.96 309.693 L1103.96 314.612 L1086.37 314.612 L1086.37 325.202 Q1087.64 324.768 1088.91 324.565 Q1090.19 324.334 1091.46 324.334 Q1098.69 324.334 1102.92 328.298 Q1107.14 332.262 1107.14 339.033 Q1107.14 346.006 1102.8 349.883 Q1098.46 353.732 1090.56 353.732 Q1087.84 353.732 1085.01 353.269 Q1082.2 352.806 1079.19 351.88 L1079.19 346.006 Q1081.79 347.424 1084.57 348.118 Q1087.35 348.813 1090.45 348.813 Q1095.45 348.813 1098.37 346.18 Q1101.3 343.547 1101.3 339.033 Q1101.3 334.519 1098.37 331.886 Q1095.45 329.253 1090.45 329.253 Q1088.1 329.253 1085.76 329.773 Q1083.44 330.294 1081.01 331.394 L1081.01 309.693 Z" fill="#000000" fill-rule="evenodd" fill-opacity="1" /><path clip-path="url(#clip010)" d="M1692.96 309.693 L1715.9 309.693 L1715.9 314.612 L1698.31 314.612 L1698.31 325.202 Q1699.59 324.768 1700.86 324.565 Q1702.13 324.334 1703.41 324.334 Q1710.64 324.334 1714.86 328.298 Q1719.09 332.262 1719.09 339.033 Q1719.09 346.006 1714.75 349.883 Q1710.41 353.732 1702.51 353.732 Q1699.79 353.732 1696.95 353.269 Q1694.15 352.806 1691.14 351.88 L1691.14 346.006 Q1693.74 347.424 1696.52 348.118 Q1699.3 348.813 1702.39 348.813 Q1707.4 348.813 1710.32 346.18 Q1713.24 343.547 1713.24 339.033 Q1713.24 334.519 1710.32 331.886 Q1707.4 329.253 1702.39 329.253 Q1700.05 329.253 1697.7 329.773 Q1695.39 330.294 1692.96 331.394 L1692.96 309.693 Z" fill="#000000" fill-rule="evenodd" fill-opacity="1" /><path clip-path="url(#clip010)" d="M1730.6 345.543 L1736.71 345.543 L1736.71 352.893 L1730.6 352.893 L1730.6 345.543 Z" fill="#000000" fill-rule="evenodd" fill-opacity="1" /><path clip-path="url(#clip010)" d="M1761.94 313.541 Q1757.43 313.541 1755.14 317.997 Q1752.88 322.424 1752.88 331.336 Q1752.88 340.219 1755.14 344.675 Q1757.43 349.102 1761.94 349.102 Q1766.48 349.102 1768.74 344.675 Q1771.03 340.219 1771.03 331.336 Q1771.03 322.424 1768.74 317.997 Q1766.48 313.541 1761.94 313.541 M1761.94 308.911 Q1769.2 308.911 1773.02 314.669 Q1776.87 320.399 1776.87 331.336 Q1776.87 342.244 1773.02 348.003 Q1769.2 353.732 1761.94 353.732 Q1754.68 353.732 1750.83 348.003 Q1747.01 342.244 1747.01 331.336 Q1747.01 320.399 1750.83 314.669 Q1754.68 308.911 1761.94 308.911 Z" fill="#000000" fill-rule="evenodd" fill-opacity="1" /><path clip-path="url(#clip010)" d="M2361.13 309.693 L2388.9 309.693 L2388.9 312.181 L2373.22 352.893 L2367.12 352.893 L2381.87 314.612 L2361.13 314.612 L2361.13 309.693 Z" fill="#000000" fill-rule="evenodd" fill-opacity="1" /><path clip-path="url(#clip010)" d="M2400.3 345.543 L2406.41 345.543 L2406.41 352.893 L2400.3 352.893 L2400.3 345.543 Z" fill="#000000" fill-rule="evenodd" fill-opacity="1" /><path clip-path="url(#clip010)" d="M2419.2 309.693 L2442.14 309.693 L2442.14 314.612 L2424.55 314.612 L2424.55 325.202 Q2425.82 324.768 2427.1 324.565 Q2428.37 324.334 2429.64 324.334 Q2436.88 324.334 2441.1 328.298 Q2445.33 332.262 2445.33 339.033 Q2445.33 346.006 2440.99 349.883 Q2436.65 353.732 2428.75 353.732 Q2426.03 353.732 2423.19 353.269 Q2420.38 352.806 2417.38 351.88 L2417.38 346.006 Q2419.98 347.424 2422.76 348.118 Q2425.54 348.813 2428.63 348.813 Q2433.64 348.813 2436.56 346.18 Q2439.48 343.547 2439.48 339.033 Q2439.48 334.519 2436.56 331.886 Q2433.64 329.253 2428.63 329.253 Q2426.29 329.253 2423.94 329.773 Q2421.63 330.294 2419.2 331.394 L2419.2 309.693 Z" fill="#000000" fill-rule="evenodd" fill-opacity="1" /><path clip-path="url(#clip010)" d="M3012.54 347.974 L3022.09 347.974 L3022.09 315.017 L3011.7 317.1 L3011.7 311.776 L3022.03 309.693 L3027.87 309.693 L3027.87 347.974 L3037.42 347.974 L3037.42 352.893 L3012.54 352.893 L3012.54 347.974 Z" fill="#000000" fill-rule="evenodd" fill-opacity="1" /><path clip-path="url(#clip010)" d="M3061.73 313.541 Q3057.21 313.541 3054.93 317.997 Q3052.67 322.424 3052.67 331.336 Q3052.67 340.219 3054.93 344.675 Q3057.21 349.102 3061.73 349.102 Q3066.27 349.102 3068.53 344.675 Q3070.81 340.219 3070.81 331.336 Q3070.81 322.424 3068.53 317.997 Q3066.27 313.541 3061.73 313.541 M3061.73 308.911 Q3068.99 308.911 3072.81 314.669 Q3076.66 320.399 3076.66 331.336 Q3076.66 342.244 3072.81 348.003 Q3068.99 353.732 3061.73 353.732 Q3054.47 353.732 3050.62 348.003 Q3046.8 342.244 3046.8 331.336 Q3046.8 320.399 3050.62 314.669 Q3054.47 308.911 3061.73 308.911 Z" fill="#000000" fill-rule="evenodd" fill-opacity="1" /><path clip-path="url(#clip010)" d="M3086.93 345.543 L3093.04 345.543 L3093.04 352.893 L3086.93 352.893 L3086.93 345.543 Z" fill="#000000" fill-rule="evenodd" fill-opacity="1" /><path clip-path="url(#clip010)" d="M3118.27 313.541 Q3113.75 313.541 3111.47 317.997 Q3109.21 322.424 3109.21 331.336 Q3109.21 340.219 3111.47 344.675 Q3113.75 349.102 3118.27 349.102 Q3122.81 349.102 3125.07 344.675 Q3127.35 340.219 3127.35 331.336 Q3127.35 322.424 3125.07 317.997 Q3122.81 313.541 3118.27 313.541 M3118.27 308.911 Q3125.53 308.911 3129.35 314.669 Q3133.2 320.399 3133.2 331.336 Q3133.2 342.244 3129.35 348.003 Q3125.53 353.732 3118.27 353.732 Q3111.01 353.732 3107.16 348.003 Q3103.34 342.244 3103.34 331.336 Q3103.34 320.399 3107.16 314.669 Q3111.01 308.911 3118.27 308.911 Z" fill="#000000" fill-rule="evenodd" fill-opacity="1" /><path clip-path="url(#clip010)" d="M1661.36 130.264 Q1661.36 136.166 1658.37 141.946 Q1655.42 147.684 1650.66 151.291 Q1645.95 154.899 1641.11 154.899 Q1636.4 154.899 1633.4 151.291 Q1630.45 147.643 1630.45 141.7 Q1630.45 139.61 1630.7 138.134 Q1630.94 136.658 1631.81 133.215 L1638.69 105.834 Q1639.88 100.711 1639.88 100.67 Q1639.88 100.178 1639.68 99.9319 Q1639.51 99.645 1638.53 99.44 Q1637.54 99.2351 1635.66 99.2351 Q1634.88 99.2351 1634.51 99.1941 Q1634.18 99.1531 1633.9 98.9482 Q1633.65 98.7022 1633.65 98.2104 Q1633.65 97.5135 1633.94 97.1446 Q1634.26 96.7348 1634.51 96.6528 Q1634.76 96.5708 1635.25 96.5298 Q1635.95 96.4888 1638.28 96.2839 Q1640.62 96.0379 1642.63 95.874 Q1644.64 95.71 1645.5 95.71 Q1645.99 95.71 1646.23 95.956 Q1646.52 96.1609 1646.52 96.4068 L1646.56 96.6118 L1640.37 121.902 Q1645.25 116.86 1650.21 116.86 Q1655.17 116.86 1658.24 120.672 Q1661.36 124.484 1661.36 130.264 M1655.29 126.575 Q1655.29 122.681 1653.82 120.713 Q1652.38 118.705 1650 118.705 Q1648 118.705 1645.37 120.222 Q1642.75 121.738 1639.96 125.427 Q1639.43 126.124 1639.22 126.534 Q1639.06 126.944 1638.69 128.337 L1636.85 136.084 Q1635.49 141.372 1635.49 144.569 Q1635.49 148.914 1637.09 150.964 Q1638.69 153.013 1641.11 153.013 Q1643.65 153.013 1646.32 150.759 Q1648.98 148.504 1651.03 144.405 Q1652.3 141.7 1653.78 135.88 Q1655.29 130.018 1655.29 126.575 Z" fill="#000000" fill-rule="evenodd" fill-opacity="1" /><path clip-path="url(#clip010)" d="M1670.8 132.969 Q1670.8 118.787 1676.09 107.351 Q1678.34 102.555 1681.5 98.5383 Q1684.66 94.5213 1686.75 92.7588 Q1688.84 90.9963 1689.41 90.9963 Q1690.23 90.9963 1690.27 91.816 Q1690.27 92.2259 1689.17 93.2507 Q1675.64 107.023 1675.68 132.969 Q1675.68 158.997 1688.84 172.237 Q1690.27 173.672 1690.27 174.123 Q1690.27 174.942 1689.41 174.942 Q1688.84 174.942 1686.83 173.262 Q1684.82 171.581 1681.71 167.728 Q1678.59 163.875 1676.34 159.161 Q1670.8 147.725 1670.8 132.969 Z" fill="#000000" fill-rule="evenodd" fill-opacity="1" /><path clip-path="url(#clip010)" d="M1703.04 120.386 L1703.04 117.762 L1709.64 117.762 L1709.64 108.13 Q1709.64 101.899 1713.65 98.3333 Q1717.71 94.7673 1722.67 94.7673 Q1725.95 94.7673 1728.08 96.5298 Q1730.21 98.2923 1730.21 100.67 Q1730.21 102.268 1729.23 103.334 Q1728.29 104.359 1726.52 104.359 Q1724.84 104.359 1723.86 103.293 Q1722.92 102.227 1722.92 100.752 Q1722.92 98.0464 1725.42 97.2266 Q1724.15 96.6528 1722.67 96.6118 Q1719.64 96.6118 1717.26 99.727 Q1714.92 102.842 1714.92 108.048 L1714.92 117.762 L1724.76 117.762 L1724.76 120.386 L1715.21 120.386 L1715.21 147.397 Q1715.21 149.816 1716.2 150.595 Q1717.22 151.373 1721.56 151.373 L1723.33 151.373 L1723.33 153.956 Q1719.97 153.71 1712.67 153.71 Q1711.65 153.71 1710.05 153.751 Q1708.49 153.792 1706.36 153.874 Q1704.27 153.956 1703.12 153.956 L1703.12 151.373 Q1707.59 151.373 1708.61 150.841 Q1709.64 150.267 1709.64 147.561 L1709.64 120.386 L1703.04 120.386 Z" fill="#000000" fill-rule="evenodd" fill-opacity="1" /><path clip-path="url(#clip010)" d="M1736.1 153.956 L1736.1 151.373 Q1740.57 151.373 1741.59 150.841 Q1742.62 150.267 1742.62 147.561 L1742.62 125.058 Q1742.62 121.943 1741.51 121.164 Q1740.44 120.386 1736.1 120.386 L1736.1 117.762 L1747.9 116.86 L1747.9 125.673 Q1751.84 116.86 1760.32 116.86 Q1770.16 116.86 1771.51 125.058 Q1772.95 121.861 1775.94 119.361 Q1778.97 116.86 1783.69 116.86 Q1790 116.86 1792.5 119.976 Q1794.34 122.066 1794.71 124.403 Q1795.08 126.739 1795.08 132.805 L1795.08 148.832 Q1795.16 150.595 1796.52 151.005 Q1797.87 151.373 1801.64 151.373 L1801.64 153.956 Q1793.07 153.71 1792.25 153.71 Q1791.6 153.71 1782.74 153.956 L1782.74 151.373 Q1787.21 151.373 1788.24 150.841 Q1789.3 150.267 1789.3 147.561 L1789.3 128.01 Q1789.3 123.747 1787.99 121.246 Q1786.68 118.705 1783.07 118.705 Q1778.73 118.705 1775.24 122.353 Q1771.76 126.001 1771.76 132.149 L1771.76 147.561 Q1771.76 150.267 1772.78 150.841 Q1773.85 151.373 1778.32 151.373 L1778.32 153.956 Q1769.75 153.71 1768.89 153.71 Q1768.23 153.71 1759.42 153.956 L1759.42 151.373 Q1763.89 151.373 1764.91 150.841 Q1765.98 150.267 1765.98 147.561 L1765.98 128.01 Q1765.98 123.747 1764.67 121.246 Q1763.36 118.705 1759.75 118.705 Q1755.41 118.705 1751.92 122.353 Q1748.44 126.001 1748.44 132.149 L1748.44 147.561 Q1748.44 150.267 1749.46 150.841 Q1750.53 151.373 1754.95 151.373 L1754.95 153.956 Q1746.39 153.71 1745.57 153.71 Q1744.91 153.71 1736.1 153.956 Z" fill="#000000" fill-rule="evenodd" fill-opacity="1" /><path clip-path="url(#clip010)" d="M1805.32 174.123 Q1805.32 173.713 1806.39 172.688 Q1819.91 158.915 1819.91 132.969 Q1819.91 106.941 1806.92 93.7835 Q1805.32 92.2669 1805.32 91.816 Q1805.32 90.9963 1806.14 90.9963 Q1806.71 90.9963 1808.72 92.6768 Q1810.77 94.3574 1813.85 98.2104 Q1816.96 102.063 1819.26 106.777 Q1824.79 118.213 1824.79 132.969 Q1824.79 147.152 1819.5 158.588 Q1817.25 163.383 1814.09 167.4 Q1810.94 171.417 1808.84 173.18 Q1806.75 174.942 1806.14 174.942 Q1805.32 174.942 1805.32 174.123 Z" fill="#000000" fill-rule="evenodd" fill-opacity="1" /><polyline clip-path="url(#clip012)" style="stroke:#000000; stroke-linecap:butt; stroke-linejoin:round; stroke-width:2; stroke-opacity:0.1; fill:none" points="
  315.252,1666.77 3152.76,1666.77 
  "/>
<polyline clip-path="url(#clip012)" style="stroke:#000000; stroke-linecap:butt; stroke-linejoin:round; stroke-width:2; stroke-opacity:0.1; fill:none" points="
  315.252,1203 3152.76,1203 
  "/>
<polyline clip-path="url(#clip012)" style="stroke:#000000; stroke-linecap:butt; stroke-linejoin:round; stroke-width:2; stroke-opacity:0.1; fill:none" points="
  315.252,739.224 3152.76,739.224 
  "/>
<polyline clip-path="url(#clip012)" style="stroke:#000000; stroke-linecap:butt; stroke-linejoin:round; stroke-width:2; stroke-opacity:0.05; fill:none" points="
  315.252,1852.28 3152.76,1852.28 
  "/>
<polyline clip-path="url(#clip012)" style="stroke:#000000; stroke-linecap:butt; stroke-linejoin:round; stroke-width:2; stroke-opacity:0.05; fill:none" points="
  315.252,1759.52 3152.76,1759.52 
  "/>
<polyline clip-path="url(#clip012)" style="stroke:#000000; stroke-linecap:butt; stroke-linejoin:round; stroke-width:2; stroke-opacity:0.05; fill:none" points="
  315.252,1574.01 3152.76,1574.01 
  "/>
<polyline clip-path="url(#clip012)" style="stroke:#000000; stroke-linecap:butt; stroke-linejoin:round; stroke-width:2; stroke-opacity:0.05; fill:none" points="
  315.252,1481.26 3152.76,1481.26 
  "/>
<polyline clip-path="url(#clip012)" style="stroke:#000000; stroke-linecap:butt; stroke-linejoin:round; stroke-width:2; stroke-opacity:0.05; fill:none" points="
  315.252,1388.5 3152.76,1388.5 
  "/>
<polyline clip-path="url(#clip012)" style="stroke:#000000; stroke-linecap:butt; stroke-linejoin:round; stroke-width:2; stroke-opacity:0.05; fill:none" points="
  315.252,1295.75 3152.76,1295.75 
  "/>
<polyline clip-path="url(#clip012)" style="stroke:#000000; stroke-linecap:butt; stroke-linejoin:round; stroke-width:2; stroke-opacity:0.05; fill:none" points="
  315.252,1110.24 3152.76,1110.24 
  "/>
<polyline clip-path="url(#clip012)" style="stroke:#000000; stroke-linecap:butt; stroke-linejoin:round; stroke-width:2; stroke-opacity:0.05; fill:none" points="
  315.252,1017.49 3152.76,1017.49 
  "/>
<polyline clip-path="url(#clip012)" style="stroke:#000000; stroke-linecap:butt; stroke-linejoin:round; stroke-width:2; stroke-opacity:0.05; fill:none" points="
  315.252,924.732 3152.76,924.732 
  "/>
<polyline clip-path="url(#clip012)" style="stroke:#000000; stroke-linecap:butt; stroke-linejoin:round; stroke-width:2; stroke-opacity:0.05; fill:none" points="
  315.252,831.978 3152.76,831.978 
  "/>
<polyline clip-path="url(#clip012)" style="stroke:#000000; stroke-linecap:butt; stroke-linejoin:round; stroke-width:2; stroke-opacity:0.05; fill:none" points="
  315.252,646.47 3152.76,646.47 
  "/>
<polyline clip-path="url(#clip012)" style="stroke:#000000; stroke-linecap:butt; stroke-linejoin:round; stroke-width:2; stroke-opacity:0.05; fill:none" points="
  315.252,553.715 3152.76,553.715 
  "/>
<polyline clip-path="url(#clip012)" style="stroke:#000000; stroke-linecap:butt; stroke-linejoin:round; stroke-width:2; stroke-opacity:0.05; fill:none" points="
  315.252,460.961 3152.76,460.961 
  "/>
<polyline clip-path="url(#clip012)" style="stroke:#000000; stroke-linecap:butt; stroke-linejoin:round; stroke-width:2; stroke-opacity:0.05; fill:none" points="
  315.252,368.207 3152.76,368.207 
  "/>
<polyline clip-path="url(#clip012)" style="stroke:#000000; stroke-linecap:butt; stroke-linejoin:round; stroke-width:2; stroke-opacity:0.05; fill:none" points="
  315.252,182.698 3152.76,182.698 
  "/>
<polyline clip-path="url(#clip010)" style="stroke:#000000; stroke-linecap:butt; stroke-linejoin:round; stroke-width:4; stroke-opacity:1; fill:none" points="
  395.559,1876.51 395.559,179.287 
  "/>
<polyline clip-path="url(#clip010)" style="stroke:#000000; stroke-linecap:butt; stroke-linejoin:round; stroke-width:4; stroke-opacity:1; fill:none" points="
  376.661,1666.77 414.456,1666.77 
  "/>
<polyline clip-path="url(#clip010)" style="stroke:#000000; stroke-linecap:butt; stroke-linejoin:round; stroke-width:4; stroke-opacity:1; fill:none" points="
  376.661,1203 414.456,1203 
  "/>
<polyline clip-path="url(#clip010)" style="stroke:#000000; stroke-linecap:butt; stroke-linejoin:round; stroke-width:4; stroke-opacity:1; fill:none" points="
  376.661,739.224 414.456,739.224 
  "/>
<polyline clip-path="url(#clip010)" style="stroke:#000000; stroke-linecap:butt; stroke-linejoin:round; stroke-width:4; stroke-opacity:1; fill:none" points="
  386.11,1852.28 405.007,1852.28 
  "/>
<polyline clip-path="url(#clip010)" style="stroke:#000000; stroke-linecap:butt; stroke-linejoin:round; stroke-width:4; stroke-opacity:1; fill:none" points="
  386.11,1759.52 405.007,1759.52 
  "/>
<polyline clip-path="url(#clip010)" style="stroke:#000000; stroke-linecap:butt; stroke-linejoin:round; stroke-width:4; stroke-opacity:1; fill:none" points="
  386.11,1574.01 405.007,1574.01 
  "/>
<polyline clip-path="url(#clip010)" style="stroke:#000000; stroke-linecap:butt; stroke-linejoin:round; stroke-width:4; stroke-opacity:1; fill:none" points="
  386.11,1481.26 405.007,1481.26 
  "/>
<polyline clip-path="url(#clip010)" style="stroke:#000000; stroke-linecap:butt; stroke-linejoin:round; stroke-width:4; stroke-opacity:1; fill:none" points="
  386.11,1388.5 405.007,1388.5 
  "/>
<polyline clip-path="url(#clip010)" style="stroke:#000000; stroke-linecap:butt; stroke-linejoin:round; stroke-width:4; stroke-opacity:1; fill:none" points="
  386.11,1295.75 405.007,1295.75 
  "/>
<polyline clip-path="url(#clip010)" style="stroke:#000000; stroke-linecap:butt; stroke-linejoin:round; stroke-width:4; stroke-opacity:1; fill:none" points="
  386.11,1110.24 405.007,1110.24 
  "/>
<polyline clip-path="url(#clip010)" style="stroke:#000000; stroke-linecap:butt; stroke-linejoin:round; stroke-width:4; stroke-opacity:1; fill:none" points="
  386.11,1017.49 405.007,1017.49 
  "/>
<polyline clip-path="url(#clip010)" style="stroke:#000000; stroke-linecap:butt; stroke-linejoin:round; stroke-width:4; stroke-opacity:1; fill:none" points="
  386.11,924.732 405.007,924.732 
  "/>
<polyline clip-path="url(#clip010)" style="stroke:#000000; stroke-linecap:butt; stroke-linejoin:round; stroke-width:4; stroke-opacity:1; fill:none" points="
  386.11,831.978 405.007,831.978 
  "/>
<polyline clip-path="url(#clip010)" style="stroke:#000000; stroke-linecap:butt; stroke-linejoin:round; stroke-width:4; stroke-opacity:1; fill:none" points="
  386.11,646.47 405.007,646.47 
  "/>
<polyline clip-path="url(#clip010)" style="stroke:#000000; stroke-linecap:butt; stroke-linejoin:round; stroke-width:4; stroke-opacity:1; fill:none" points="
  386.11,553.715 405.007,553.715 
  "/>
<polyline clip-path="url(#clip010)" style="stroke:#000000; stroke-linecap:butt; stroke-linejoin:round; stroke-width:4; stroke-opacity:1; fill:none" points="
  386.11,460.961 405.007,460.961 
  "/>
<polyline clip-path="url(#clip010)" style="stroke:#000000; stroke-linecap:butt; stroke-linejoin:round; stroke-width:4; stroke-opacity:1; fill:none" points="
  386.11,368.207 405.007,368.207 
  "/>
<polyline clip-path="url(#clip010)" style="stroke:#000000; stroke-linecap:butt; stroke-linejoin:round; stroke-width:4; stroke-opacity:1; fill:none" points="
  386.11,182.698 405.007,182.698 
  "/>
<path clip-path="url(#clip010)" d="M195.013 1667.33 L232.108 1667.33 L232.108 1672.25 L195.013 1672.25 L195.013 1667.33 Z" fill="#000000" fill-rule="evenodd" fill-opacity="1" /><path clip-path="url(#clip010)" d="M262.432 1665.07 Q266.627 1665.97 268.971 1668.81 Q271.344 1671.64 271.344 1675.81 Q271.344 1682.2 266.946 1685.7 Q262.547 1689.21 254.446 1689.21 Q251.726 1689.21 248.832 1688.66 Q245.968 1688.14 242.9 1687.06 L242.9 1681.42 Q245.331 1682.84 248.225 1683.56 Q251.118 1684.29 254.272 1684.29 Q259.77 1684.29 262.634 1682.12 Q265.528 1679.95 265.528 1675.81 Q265.528 1671.99 262.837 1669.85 Q260.175 1667.68 255.4 1667.68 L250.366 1667.68 L250.366 1662.87 L255.632 1662.87 Q259.943 1662.87 262.229 1661.17 Q264.515 1659.43 264.515 1656.19 Q264.515 1652.86 262.142 1651.1 Q259.799 1649.3 255.4 1649.3 Q252.999 1649.3 250.25 1649.83 Q247.501 1650.35 244.203 1651.45 L244.203 1646.24 Q247.53 1645.31 250.424 1644.85 Q253.346 1644.39 255.921 1644.39 Q262.576 1644.39 266.454 1647.42 Q270.331 1650.43 270.331 1655.58 Q270.331 1659.17 268.277 1661.66 Q266.222 1664.12 262.432 1665.07 Z" fill="#000000" fill-rule="evenodd" fill-opacity="1" /><path clip-path="url(#clip010)" d="M294.926 1649.02 Q290.412 1649.02 288.126 1653.47 Q285.869 1657.9 285.869 1666.81 Q285.869 1675.69 288.126 1680.15 Q290.412 1684.58 294.926 1684.58 Q299.468 1684.58 301.725 1680.15 Q304.011 1675.69 304.011 1666.81 Q304.011 1657.9 301.725 1653.47 Q299.468 1649.02 294.926 1649.02 M294.926 1644.39 Q302.188 1644.39 306.008 1650.14 Q309.856 1655.87 309.856 1666.81 Q309.856 1677.72 306.008 1683.48 Q302.188 1689.21 294.926 1689.21 Q287.663 1689.21 283.815 1683.48 Q279.995 1677.72 279.995 1666.81 Q279.995 1655.87 283.815 1650.14 Q287.663 1644.39 294.926 1644.39 Z" fill="#000000" fill-rule="evenodd" fill-opacity="1" /><path clip-path="url(#clip010)" d="M332.628 1649.02 Q328.114 1649.02 325.828 1653.47 Q323.571 1657.9 323.571 1666.81 Q323.571 1675.69 325.828 1680.15 Q328.114 1684.58 332.628 1684.58 Q337.171 1684.58 339.428 1680.15 Q341.714 1675.69 341.714 1666.81 Q341.714 1657.9 339.428 1653.47 Q337.171 1649.02 332.628 1649.02 M332.628 1644.39 Q339.891 1644.39 343.71 1650.14 Q347.559 1655.87 347.559 1666.81 Q347.559 1677.72 343.71 1683.48 Q339.891 1689.21 332.628 1689.21 Q325.365 1689.21 321.517 1683.48 Q317.698 1677.72 317.698 1666.81 Q317.698 1655.87 321.517 1650.14 Q325.365 1644.39 332.628 1644.39 Z" fill="#000000" fill-rule="evenodd" fill-opacity="1" /><path clip-path="url(#clip010)" d="M195.013 1203.56 L232.108 1203.56 L232.108 1208.48 L195.013 1208.48 L195.013 1203.56 Z" fill="#000000" fill-rule="evenodd" fill-opacity="1" /><path clip-path="url(#clip010)" d="M249.758 1219.68 L270.157 1219.68 L270.157 1224.6 L242.727 1224.6 L242.727 1219.68 Q246.054 1216.23 251.784 1210.45 Q257.542 1204.63 259.017 1202.95 Q261.824 1199.8 262.924 1197.63 Q264.052 1195.43 264.052 1193.32 Q264.052 1189.87 261.621 1187.7 Q259.22 1185.53 255.343 1185.53 Q252.594 1185.53 249.527 1186.49 Q246.488 1187.44 243.016 1189.38 L243.016 1183.48 Q246.546 1182.06 249.613 1181.34 Q252.681 1180.61 255.227 1180.61 Q261.94 1180.61 265.933 1183.97 Q269.926 1187.33 269.926 1192.94 Q269.926 1195.6 268.913 1198 Q267.929 1200.38 265.296 1203.62 Q264.573 1204.46 260.696 1208.48 Q256.818 1212.47 249.758 1219.68 Z" fill="#000000" fill-rule="evenodd" fill-opacity="1" /><path clip-path="url(#clip010)" d="M294.926 1185.24 Q290.412 1185.24 288.126 1189.7 Q285.869 1194.13 285.869 1203.04 Q285.869 1211.92 288.126 1216.38 Q290.412 1220.8 294.926 1220.8 Q299.468 1220.8 301.725 1216.38 Q304.011 1211.92 304.011 1203.04 Q304.011 1194.13 301.725 1189.7 Q299.468 1185.24 294.926 1185.24 M294.926 1180.61 Q302.188 1180.61 306.008 1186.37 Q309.856 1192.1 309.856 1203.04 Q309.856 1213.95 306.008 1219.71 Q302.188 1225.43 294.926 1225.43 Q287.663 1225.43 283.815 1219.71 Q279.995 1213.95 279.995 1203.04 Q279.995 1192.1 283.815 1186.37 Q287.663 1180.61 294.926 1180.61 Z" fill="#000000" fill-rule="evenodd" fill-opacity="1" /><path clip-path="url(#clip010)" d="M332.628 1185.24 Q328.114 1185.24 325.828 1189.7 Q323.571 1194.13 323.571 1203.04 Q323.571 1211.92 325.828 1216.38 Q328.114 1220.8 332.628 1220.8 Q337.171 1220.8 339.428 1216.38 Q341.714 1211.92 341.714 1203.04 Q341.714 1194.13 339.428 1189.7 Q337.171 1185.24 332.628 1185.24 M332.628 1180.61 Q339.891 1180.61 343.71 1186.37 Q347.559 1192.1 347.559 1203.04 Q347.559 1213.95 343.71 1219.71 Q339.891 1225.43 332.628 1225.43 Q325.365 1225.43 321.517 1219.71 Q317.698 1213.95 317.698 1203.04 Q317.698 1192.1 321.517 1186.37 Q325.365 1180.61 332.628 1180.61 Z" fill="#000000" fill-rule="evenodd" fill-opacity="1" /><path clip-path="url(#clip010)" d="M195.013 739.788 L232.108 739.788 L232.108 744.707 L195.013 744.707 L195.013 739.788 Z" fill="#000000" fill-rule="evenodd" fill-opacity="1" /><path clip-path="url(#clip010)" d="M245.736 755.905 L255.285 755.905 L255.285 722.948 L244.897 725.031 L244.897 719.707 L255.227 717.624 L261.072 717.624 L261.072 755.905 L270.62 755.905 L270.62 760.824 L245.736 760.824 L245.736 755.905 Z" fill="#000000" fill-rule="evenodd" fill-opacity="1" /><path clip-path="url(#clip010)" d="M294.926 721.472 Q290.412 721.472 288.126 725.928 Q285.869 730.355 285.869 739.267 Q285.869 748.15 288.126 752.606 Q290.412 757.033 294.926 757.033 Q299.468 757.033 301.725 752.606 Q304.011 748.15 304.011 739.267 Q304.011 730.355 301.725 725.928 Q299.468 721.472 294.926 721.472 M294.926 716.843 Q302.188 716.843 306.008 722.601 Q309.856 728.33 309.856 739.267 Q309.856 750.176 306.008 755.934 Q302.188 761.663 294.926 761.663 Q287.663 761.663 283.815 755.934 Q279.995 750.176 279.995 739.267 Q279.995 728.33 283.815 722.601 Q287.663 716.843 294.926 716.843 Z" fill="#000000" fill-rule="evenodd" fill-opacity="1" /><path clip-path="url(#clip010)" d="M332.628 721.472 Q328.114 721.472 325.828 725.928 Q323.571 730.355 323.571 739.267 Q323.571 748.15 325.828 752.606 Q328.114 757.033 332.628 757.033 Q337.171 757.033 339.428 752.606 Q341.714 748.15 341.714 739.267 Q341.714 730.355 339.428 725.928 Q337.171 721.472 332.628 721.472 M332.628 716.843 Q339.891 716.843 343.71 722.601 Q347.559 728.33 347.559 739.267 Q347.559 750.176 343.71 755.934 Q339.891 761.663 332.628 761.663 Q325.365 761.663 321.517 755.934 Q317.698 750.176 317.698 739.267 Q317.698 728.33 321.517 722.601 Q325.365 716.843 332.628 716.843 Z" fill="#000000" fill-rule="evenodd" fill-opacity="1" /><path clip-path="url(#clip010)" d="M25.7827 1108.48 Q12.871 1108.48 3.97637 1100.24 Q-4.9593 1091.96 -4.9593 1080.52 Q-4.9593 1069.21 3.93538 1060.89 Q12.83 1052.57 25.7827 1052.57 Q38.6943 1052.57 47.384 1060.89 Q56.0737 1069.21 56.0737 1080.56 Q56.0737 1091.88 47.343 1100.2 Q38.6123 1108.48 25.7827 1108.48 M25.7827 1100.28 Q33.4067 1100.28 39.1862 1098.35 Q44.9247 1096.39 48.0398 1093.31 Q51.114 1090.2 52.5896 1086.96 Q54.0653 1083.72 54.0653 1080.52 Q54.0653 1078.02 53.2455 1075.48 Q52.3847 1072.9 50.2942 1070.19 Q48.2038 1067.45 45.0476 1065.4 Q41.8914 1063.35 36.8908 1062.04 Q31.8901 1060.72 25.7007 1060.72 Q17.9947 1060.72 12.1332 1062.65 Q6.23078 1064.58 3.0746 1067.69 Q-0.0815734 1070.81 -1.59818 1074.09 Q-3.11478 1077.37 -3.11478 1080.52 Q-3.11478 1083.02 -2.21302 1085.61 Q-1.35224 1088.19 0.820191 1090.89 Q2.95163 1093.56 6.1488 1095.61 Q9.30497 1097.66 14.3876 1098.97 Q19.4703 1100.28 25.7827 1100.28 M31.5621 1095.57 L19.3883 1095.57 L19.3883 1093.48 L22.3396 1093.48 L22.3396 1067.61 L19.3883 1067.61 L19.3883 1065.44 L31.5621 1065.44 L31.5621 1067.61 L28.6929 1067.61 L28.6929 1093.48 L31.5621 1093.48 L31.5621 1095.57 Z" fill="#000000" fill-rule="evenodd" fill-opacity="1" /><path clip-path="url(#clip010)" d="M33.2427 1039.44 Q19.0604 1039.44 7.62441 1034.15 Q2.82867 1031.89 -1.18828 1028.74 Q-5.20523 1025.58 -6.96777 1023.49 Q-8.73031 1021.4 -8.73031 1020.83 Q-8.73031 1020.01 -7.91053 1019.97 Q-7.50063 1019.97 -6.4759 1021.07 Q7.2965 1034.6 33.2427 1034.56 Q59.2709 1034.56 72.5104 1021.4 Q73.9451 1019.97 74.3959 1019.97 Q75.2157 1019.97 75.2157 1020.83 Q75.2157 1021.4 73.5352 1023.41 Q71.8546 1025.42 68.0016 1028.53 Q64.1486 1031.65 59.4349 1033.9 Q47.9988 1039.44 33.2427 1039.44 Z" fill="#000000" fill-rule="evenodd" fill-opacity="1" /><path clip-path="url(#clip010)" d="M6.23078 1007.2 Q2.37778 1007.2 -0.368498 1004.5 Q-3.11478 1001.75 -3.11478 997.896 Q-3.11478 993.961 -0.327509 991.297 Q2.41877 988.591 6.10781 988.591 Q9.9608 988.591 12.7071 991.379 Q15.4534 994.125 15.4534 997.896 Q15.4534 1001.83 12.7071 1004.54 Q9.91981 1007.2 6.23078 1007.2 M1.96789 1002.08 Q3.68944 1003.84 6.23078 1003.84 Q8.73112 1003.84 10.4117 1002.08 Q12.0922 1000.31 12.0922 997.896 Q12.0922 995.478 10.4117 993.756 Q8.73112 992.034 6.23078 992.034 Q3.68944 992.034 1.96789 993.797 Q0.246341 995.56 0.246341 997.896 Q0.246341 1000.31 1.96789 1002.08 Z" fill="#000000" fill-rule="evenodd" fill-opacity="1" /><path clip-path="url(#clip010)" d="M74.3959 979.553 Q73.9861 979.553 72.9613 978.487 Q59.1889 964.961 33.2427 964.961 Q7.21452 964.961 -5.94304 977.954 Q-7.45964 979.553 -7.91053 979.553 Q-8.73031 979.553 -8.73031 978.733 Q-8.73031 978.159 -7.04975 976.151 Q-5.36919 974.101 -1.5162 971.027 Q2.33679 967.912 7.05056 965.617 Q18.4866 960.083 33.2427 960.083 Q47.425 960.083 58.861 965.371 Q63.6568 967.625 67.6737 970.781 Q71.6907 973.937 73.4532 976.028 Q75.2157 978.118 75.2157 978.733 Q75.2157 979.553 74.3959 979.553 Z" fill="#000000" fill-rule="evenodd" fill-opacity="1" /><path clip-path="url(#clip010)" d="M1598 46.5738 Q1598 29.9731 1608.59 18.5371 Q1619.24 7.04839 1633.94 7.04839 Q1648.49 7.04839 1659.18 18.4844 Q1669.88 29.9204 1669.88 46.5738 Q1669.88 63.1744 1659.18 74.3469 Q1648.49 85.5194 1633.89 85.5194 Q1619.34 85.5194 1608.64 74.2942 Q1598 63.069 1598 46.5738 M1608.54 46.5738 Q1608.54 56.3761 1611.02 63.8068 Q1613.55 71.1849 1617.5 75.1901 Q1621.5 79.1427 1625.67 81.0399 Q1629.83 82.9371 1633.94 82.9371 Q1637.16 82.9371 1640.42 81.8831 Q1643.74 80.7764 1647.22 78.0887 Q1650.75 75.4009 1653.39 71.343 Q1656.02 67.2851 1657.71 60.8556 Q1659.39 54.4261 1659.39 46.4684 Q1659.39 36.5607 1656.92 29.0245 Q1654.44 21.4356 1650.44 17.3777 Q1646.43 13.3198 1642.21 11.3698 Q1638 9.41992 1633.94 9.41992 Q1630.73 9.41992 1627.41 10.5793 Q1624.09 11.686 1620.61 14.4792 Q1617.18 17.2196 1614.55 21.3302 Q1611.91 25.3882 1610.23 31.923 Q1608.54 38.4579 1608.54 46.5738 M1614.6 54.0045 L1614.6 38.3525 L1617.29 38.3525 L1617.29 42.1469 L1650.54 42.1469 L1650.54 38.3525 L1653.33 38.3525 L1653.33 54.0045 L1650.54 54.0045 L1650.54 50.3155 L1617.29 50.3155 L1617.29 54.0045 L1614.6 54.0045 Z" fill="#000000" fill-rule="evenodd" fill-opacity="1" /><path clip-path="url(#clip010)" d="M1782.34 54.6369 Q1782.97 55.2694 1782.97 56.1653 Q1782.97 57.0612 1782.34 57.6936 Q1781.71 58.326 1780.81 58.326 L1713.25 58.326 Q1712.35 58.326 1711.72 57.6936 Q1711.09 57.0612 1711.09 56.1653 Q1711.09 55.2694 1711.72 54.6369 Q1712.35 54.0045 1713.25 54.0045 L1780.81 54.0045 Q1781.71 54.0045 1782.34 54.6369 Z" fill="#000000" fill-rule="evenodd" fill-opacity="1" /><path clip-path="url(#clip010)" d="M1863.92 52.687 Q1863.92 60.2759 1860.07 67.7067 Q1856.28 75.0847 1850.16 79.7224 Q1844.1 84.36 1837.88 84.36 Q1831.82 84.36 1827.98 79.7224 Q1824.18 75.032 1824.18 67.3905 Q1824.18 64.7027 1824.5 62.8055 Q1824.81 60.9083 1825.92 56.4815 L1834.77 21.2775 Q1836.3 14.69 1836.3 14.6373 Q1836.3 14.0049 1836.04 13.6887 Q1835.83 13.3198 1834.56 13.0563 Q1833.3 12.7927 1830.87 12.7927 Q1829.87 12.7927 1829.4 12.74 Q1828.98 12.6873 1828.61 12.4238 Q1828.29 12.1076 1828.29 11.4752 Q1828.29 10.5793 1828.66 10.105 Q1829.08 9.57802 1829.4 9.47262 Q1829.72 9.36722 1830.35 9.31452 Q1831.24 9.26182 1834.25 8.99831 Q1837.25 8.68211 1839.83 8.47131 Q1842.42 8.26051 1843.52 8.26051 Q1844.15 8.26051 1844.47 8.57671 Q1844.84 8.84021 1844.84 9.15641 L1844.89 9.41992 L1836.94 41.9361 Q1843.21 35.454 1849.58 35.454 Q1855.96 35.454 1859.91 40.3551 Q1863.92 45.2563 1863.92 52.687 M1856.12 47.944 Q1856.12 42.9374 1854.22 40.4078 Q1852.38 37.8255 1849.32 37.8255 Q1846.74 37.8255 1843.36 39.7754 Q1839.99 41.7253 1836.41 46.4684 Q1835.72 47.3643 1835.46 47.8913 Q1835.25 48.4183 1834.77 50.2101 L1832.4 60.1705 Q1830.66 66.9689 1830.66 71.0795 Q1830.66 76.6658 1832.72 79.3008 Q1834.77 81.9358 1837.88 81.9358 Q1841.15 81.9358 1844.58 79.0373 Q1848 76.1388 1850.64 70.8687 Q1852.27 67.3905 1854.17 59.907 Q1856.12 52.3708 1856.12 47.944 Z" fill="#000000" fill-rule="evenodd" fill-opacity="1" /><polyline clip-path="url(#clip012)" style="stroke:#009af9; stroke-linecap:butt; stroke-linejoin:round; stroke-width:8; stroke-opacity:1; fill:none" points="
  396.568,275.955 397.584,276.433 398.607,276.902 399.637,277.368 400.674,277.832 401.718,278.294 402.768,278.755 403.826,279.217 404.89,279.679 405.962,280.142 
  407.041,280.605 408.126,281.069 409.219,281.535 410.319,282.001 411.427,282.47 412.541,282.939 413.663,283.41 414.792,283.883 415.928,284.358 417.072,284.834 
  418.223,285.313 419.382,285.793 420.548,286.275 421.722,286.759 422.903,287.246 424.092,287.734 425.288,288.225 426.492,288.717 427.704,289.212 428.924,289.709 
  430.151,290.209 431.386,290.711 432.629,291.215 433.88,291.722 435.139,292.23 436.405,292.742 437.68,293.256 438.963,293.772 440.253,294.291 441.552,294.812 
  442.859,295.336 444.174,295.863 445.497,296.392 446.829,296.924 448.169,297.458 449.517,297.996 450.873,298.535 452.238,299.078 453.611,299.623 454.993,300.171 
  456.383,300.722 457.782,301.276 459.189,301.832 460.605,302.392 462.03,302.954 463.463,303.519 464.905,304.087 466.355,304.658 467.815,305.231 469.283,305.808 
  470.76,306.388 472.246,306.971 473.741,307.556 475.245,308.145 476.758,308.737 478.28,309.332 479.811,309.93 481.351,310.531 482.901,311.135 484.459,311.743 
  486.027,312.353 487.604,312.967 489.19,313.584 490.786,314.204 492.391,314.827 494.005,315.454 495.629,316.084 497.262,316.717 498.905,317.354 500.558,317.994 
  502.22,318.637 503.891,319.283 505.573,319.933 507.264,320.587 508.964,321.243 510.675,321.904 512.395,322.567 514.126,323.235 515.866,323.905 517.616,324.579 
  519.376,325.257 521.146,325.938 522.926,326.623 524.716,327.312 526.517,328.004 528.327,328.699 530.148,329.399 531.979,330.102 533.82,330.808 535.671,331.519 
  537.533,332.233 539.405,332.951 541.288,333.672 543.181,334.398 545.084,335.127 546.998,335.86 548.923,336.597 550.858,337.338 552.804,338.082 554.76,338.831 
  556.727,339.584 558.705,340.34 560.694,341.1 562.693,341.865 564.704,342.633 566.725,343.406 568.757,344.182 570.8,344.963 572.855,345.748 574.92,346.537 
  576.996,347.33 579.083,348.127 581.182,348.928 583.291,349.734 585.412,350.544 587.544,351.358 589.688,352.176 591.843,352.999 594.009,353.826 596.186,354.657 
  598.375,355.493 600.575,356.333 602.787,357.178 605.011,358.027 607.246,358.881 609.492,359.739 611.75,360.601 614.02,361.468 616.302,362.34 618.595,363.216 
  620.9,364.097 623.217,364.983 625.546,365.873 627.887,366.768 630.239,367.667 632.604,368.572 634.98,369.481 637.369,370.395 639.769,371.314 642.182,372.238 
  644.607,373.166 647.044,374.1 649.493,375.038 651.954,375.982 654.428,376.931 656.914,377.884 659.412,378.843 661.922,379.807 664.445,380.775 666.981,381.749 
  669.529,382.729 672.089,383.713 674.662,384.703 677.247,385.698 679.845,386.698 682.456,387.704 685.079,388.715 687.715,389.731 690.363,390.753 693.025,391.781 
  695.699,392.814 698.386,393.852 701.086,394.896 703.798,395.946 706.524,397.001 709.262,398.063 712.014,399.129 714.778,400.202 717.556,401.28 720.346,402.364 
  723.15,403.455 725.966,404.551 728.796,405.653 731.639,406.761 734.495,407.875 737.365,408.995 740.247,410.121 743.143,411.254 746.053,412.392 748.975,413.537 
  751.911,414.688 754.861,415.846 757.823,417.01 760.8,418.18 763.789,419.357 766.793,420.54 769.81,421.73 772.84,422.927 775.884,424.13 778.942,425.34 
  782.013,426.556 785.098,427.78 788.196,429.01 791.309,430.247 794.435,431.491 797.575,432.742 800.728,434.001 803.896,435.266 807.077,436.538 810.273,437.818 
  813.482,439.105 816.705,440.399 819.942,441.701 823.193,443.01 826.458,444.326 829.737,445.651 833.03,446.982 836.337,448.322 839.658,449.669 842.994,451.024 
  846.343,452.387 849.707,453.758 853.085,455.136 856.477,456.523 859.883,457.918 863.304,459.321 866.739,460.733 870.188,462.152 873.651,463.581 877.129,465.017 
  880.621,466.463 884.128,467.916 887.649,469.379 891.184,470.85 894.734,472.33 898.298,473.819 901.877,475.317 905.47,476.825 909.077,478.341 912.7,479.867 
  916.336,481.401 919.988,482.946 923.654,484.5 927.334,486.063 931.029,487.636 934.739,489.219 938.463,490.812 942.202,492.415 945.956,494.028 949.725,495.651 
  953.508,497.284 957.306,498.928 961.118,500.582 964.946,502.247 968.788,503.922 972.645,505.608 976.516,507.305 980.403,509.014 984.304,510.733 988.221,512.463 
  992.152,514.205 996.097,515.958 1000.06,517.723 1004.03,519.499 1008.02,521.288 1012.03,523.088 1016.05,524.901 1020.09,526.726 1024.14,528.563 1028.2,530.412 
  1032.28,532.275 1036.38,534.15 1040.49,536.038 1044.61,537.939 1048.75,539.853 1052.91,541.781 1057.08,543.722 1061.26,545.677 1065.46,547.646 1069.68,549.629 
  1073.91,551.626 1078.15,553.638 1082.41,555.664 1086.69,557.705 1090.98,559.761 1095.29,561.832 1099.61,563.918 1103.94,566.02 1108.29,568.137 1112.66,570.27 
  1117.04,572.42 1121.44,574.586 1125.85,576.768 1130.27,578.967 1134.71,581.183 1139.17,583.417 1143.64,585.667 1148.13,587.936 1152.63,590.223 1157.15,592.527 
  1161.68,594.85 1166.23,597.192 1170.79,599.553 1175.37,601.933 1179.96,604.333 1184.57,606.753 1189.19,609.192 1193.83,611.653 1198.48,614.134 1203.15,616.636 
  1207.83,619.159 1212.53,621.705 1217.24,624.273 1221.97,626.862 1226.71,629.475 1231.47,632.111 1236.24,634.771 1241.03,637.454 1245.84,640.162 1250.65,642.895 
  1255.49,645.653 1260.34,648.436 1265.2,651.246 1270.08,654.083 1274.97,656.946 1279.88,659.837 1284.81,662.756 1289.74,665.703 1294.7,668.68 1299.67,671.686 
  1304.65,674.722 1309.65,677.79 1314.66,680.888 1319.69,684.019 1324.73,687.182 1329.79,690.379 1334.86,693.609 1339.95,696.875 1345.06,700.176 1350.17,703.512 
  1355.3,706.887 1360.45,710.297 1365.61,713.748 1370.79,717.237 1375.98,720.767 1381.19,724.338 1386.41,727.951 1391.65,731.607 1396.9,735.308 1402.16,739.054 
  1407.44,742.846 1412.74,746.685 1418.04,750.573 1423.37,754.511 1428.71,758.501 1434.06,762.542 1439.43,766.638 1444.81,770.789 1450.21,774.997 1455.62,779.262 
  1461.04,783.588 1466.48,787.976 1471.94,792.427 1477.4,796.945 1482.89,801.528 1488.38,806.182 1493.9,810.906 1499.42,815.705 1504.96,820.58 1510.52,825.533 
  1516.09,830.567 1521.67,835.685 1527.27,840.89 1532.88,846.184 1538.5,851.572 1544.14,857.055 1549.8,862.638 1555.46,868.325 1561.15,874.119 1566.84,880.024 
  1572.55,886.046 1578.27,892.189 1584.01,898.458 1589.76,904.856 1595.53,911.392 1601.31,918.071 1607.1,924.899 1612.91,931.884 1618.73,939.032 1624.56,946.35 
  1630.41,953.85 1636.27,961.539 1642.14,969.427 1648.03,977.525 1653.93,985.845 1659.85,994.399 1665.78,1003.2 1671.72,1012.27 1677.67,1021.61 1683.64,1031.25 
  1689.62,1041.21 1695.62,1051.51 1701.63,1062.17 1707.65,1073.22 1713.68,1084.69 1719.73,1096.61 1725.79,1109.02 1731.87,1121.96 1737.95,1135.49 1744.05,1149.64 
  1750.17,1164.5 1756.29,1180.11 1762.43,1196.58 1768.58,1214 1774.75,1232.47 1780.92,1252.14 1787.11,1273.17 1793.31,1295.75 1799.53,1320.13 1805.76,1346.6 
  1812,1375.54 1818.25,1407.44 1824.51,1442.92 1830.79,1482.83 1837.08,1528.29 1843.38,1580.84 1849.69,1642.46 1856.02,1715.07 1862.35,1795.31 1868.7,1828.47 
  1875.07,1526.22 1881.44,1135.35 1887.82,928.345 1894.22,806.472 1900.63,724.593 1907.05,664.744 1913.48,618.509 1919.93,581.391 1926.39,550.748 1932.85,524.913 
  1939.33,502.779 1945.82,483.578 1952.32,466.769 1958.84,451.975 1965.36,439.044 1971.9,427.407 1978.44,416.743 1985,406.931 1991.57,397.868 1998.15,389.47 
  2004.74,381.665 2011.35,374.391 2017.96,367.595 2024.58,361.231 2031.22,355.26 2037.86,349.646 2044.52,344.36 2051.18,339.373 2057.86,334.661 2064.55,330.204 
  2071.25,325.982 2077.96,321.978 2084.67,318.176 2091.4,314.562 2098.14,311.123 2104.89,307.849 2111.65,304.728 2118.42,301.75 2125.2,298.908 2131.99,296.193 
  2138.79,293.596 2145.59,291.113 2152.41,288.736 2159.24,286.459 2166.08,284.277 2172.92,282.184 2179.78,280.177 2186.65,278.251 2193.52,276.402 2200.4,274.626 
  2207.3,272.919 2214.2,271.278 2221.11,269.7 2228.03,268.182 2234.96,266.722 2241.9,265.316 2248.85,263.962 2255.8,262.659 2262.77,261.403 2269.74,260.193 
  2276.72,259.026 2283.71,257.902 2290.71,256.818 2297.72,255.772 2304.73,254.764 2311.75,253.791 2318.79,252.852 2325.83,251.946 2332.87,251.071 2339.93,250.227 
  2346.99,249.412 2354.06,248.625 2361.14,247.865 2368.23,247.131 2375.32,246.422 2382.42,245.737 2389.53,245.076 2396.64,244.436 2403.77,243.819 2410.9,243.222 
  2418.03,242.645 2425.18,242.088 2432.33,241.549 2439.49,241.029 2446.65,240.526 2453.83,240.04 2461,239.57 2468.19,239.116 2475.38,238.677 2482.58,238.252 
  2489.78,237.842 2496.99,237.446 2504.21,237.063 2511.43,236.692 2518.66,236.334 2525.9,235.989 2533.14,235.654 2540.39,235.331 2547.64,235.019 2554.9,234.718 
  2562.16,234.426 2569.43,234.145 2576.71,233.872 2583.99,233.61 2591.27,233.356 2598.57,233.111 2605.86,232.874 2613.16,232.645 2620.47,232.424 2627.78,232.211 
  2635.1,232.005 2642.42,231.806 2649.74,231.615 2657.07,231.429 2664.41,231.251 2671.75,231.079 2679.09,230.912 2686.44,230.752 2693.79,230.597 2701.15,230.448 
  2708.51,230.305 2715.87,230.166 2723.24,230.033 2730.61,229.904 2737.99,229.78 2745.37,229.661 2752.75,229.546 2760.14,229.435 2767.53,229.329 2774.92,229.226 
  2782.32,229.128 2789.72,229.033 2797.12,228.942 2804.53,228.854 2811.93,228.77 2819.35,228.69 2826.76,228.612 2834.18,228.538 2841.6,228.466 2849.02,228.398 
  2856.44,228.332 2863.87,228.269 2871.3,228.209 2878.73,228.151 2886.16,228.096 2893.6,228.043 2901.04,227.992 2908.48,227.944 2915.92,227.898 2923.36,227.854 
  2930.81,227.812 2938.25,227.772 2945.7,227.734 2953.15,227.698 2960.6,227.663 2968.05,227.63 2975.5,227.599 2982.96,227.57 2990.41,227.542 2997.87,227.515 
  3005.32,227.49 3012.78,227.466 3020.24,227.444 3027.69,227.423 3035.15,227.403 3042.61,227.385 3050.07,227.367 3057.53,227.351 3064.99,227.336 3072.45,227.322 
  
  "/>
</svg>
